<svg xmlns="http://www.w3.org/2000/svg" viewBox="0 0 800 269.99"><defs><style>.a{fill:#f15a24;}</style></defs><title>chitfeed</title><path class="a" d="M156.87,146.29c2.49-2.84,4.26-3.91,5.15-3.2s0.53,2.84-1.07,6.21A108.8,108.8,0,0,1,150.65,166a142.49,142.49,0,0,1-14.91,16A75.88,75.88,0,0,1,123,191c-5.68,3.37-10.3,5-13.85,5-3.37,0-8.35-2-14.91-5.68A75,75,0,0,1,75.9,175.41c-5.68-6.21-8.52-12.07-8.34-17.58,0.18-8.17,2.49-17.76,6.75-28.76A200.39,200.39,0,0,1,88.86,98.71a153.79,153.79,0,0,1,16.69-23.44c5.68-6.39,10.12-9.59,13.14-9.59a103.57,103.57,0,0,1,19.89,1.78,93.89,93.89,0,0,1,15.8,4.26A81.76,81.76,0,0,1,165.57,77a47.2,47.2,0,0,1,7.1,4.79,17.71,17.71,0,0,1,2.66,2.66q3.2,5.59-2.13,14.91a51.17,51.17,0,0,1-13.32,15.45c-5.33,4.08-9.23,5.68-11.54,4.62a2,2,0,0,1-.53-1.42,7.33,7.33,0,0,1,.71-2.66c0.53-1.24,1.07-2.49,1.6-3.55a39.11,39.11,0,0,0,1.6-3.73l1.42-3.73a59.35,59.35,0,0,0,3-12.43q0.53-5.33-.53-8c-0.71-1.78-1.78-2.84-3.37-3-3.37-.53-8.17,4.62-14.38,15.27A162.31,162.31,0,0,0,119.4,141c-3.55,17.58-1.6,26.81,6,27.7,8.35,0,19.18-7.46,32.49-22.55Z"/><path class="a" d="M265.17,121.08c0,2.31-1.6,9.23-5,20.6-4.08,13.14-6,22.19-6,27q0,4,1.6,5.86a4.61,4.61,0,0,0,3.55,1.78,22.67,22.67,0,0,1,3.55.18,1.63,1.63,0,0,1,1.6,1.78q0,3.46-8.52,10.65c-5.68,4.79-11.54,7.1-17.58,7.1-4.08,0-9.06-3-15.09-9.06s-9.06-10.65-9.06-13.67c0-5.86,1.6-13.14,5-21.84q2.93-9.05,8-21.84a2.26,2.26,0,0,0-.18-2,1.1,1.1,0,0,0-1.24-.35c-0.89,0-2.66,1.24-5.15,3.73s-5.33,6.57-8.52,12.25a60.31,60.31,0,0,0-6.57,18.47L205,166.36a1.63,1.63,0,0,0-.18,1.06c-1.24,9.77-2,16.33-2,19.71,0,1.24-2,3-6,5.5s-7.28,3.73-9.59,3.73c-4.08,0-9.06-3-15.09-9.06s-9.06-10.65-9.06-13.67q0-6.92,4.26-19.71c1.6-5.33,3.91-13,6.75-22.9l7.63-26.63q3.46-11.72,3.73-12.78a5.39,5.39,0,0,0-2.13-6.21q-3.2-2.4-3.2-3.73,0-2.4,8-7.46c5.33-3.37,9.59-5,12.78-5,2.31,0,6,.71,11,2.31A72.31,72.31,0,0,1,223.27,76a4.85,4.85,0,0,1,2.31,2.31,4.79,4.79,0,0,1,.53,3v1.24c0,2.13-1.78,9.05-5.15,20.77l-7.63,24.86a63.55,63.55,0,0,1,14-15.09c5.33-4.08,9.94-6,13.85-6,2.31,0,5.68.71,10.12,2.31A61.89,61.89,0,0,1,262,114.16a5.24,5.24,0,0,1,2.31,2.49,4.78,4.78,0,0,1,.53,3v1.24Z"/><path class="a" d="M318.6,120.91c0,2-1.78,8.88-5.15,20.6-0.18.53-.71,2.31-1.6,5.5s-1.6,5.68-2.13,7.46a69.46,69.46,0,0,0-1.6,6.92,40.25,40.25,0,0,0-.71,7.46q0,4,1.6,5.86a4.61,4.61,0,0,0,3.55,1.78,22.61,22.61,0,0,1,3.55.18,1.63,1.63,0,0,1,1.6,1.78q0,3.46-8.52,10.65c-5.68,4.79-11.54,7.1-17.76,7.1-4.08,0-9.05-3-15.09-9.06s-9.06-10.48-9.06-13.49c0-5.15,1.6-12.43,5-21.84,2.13-6,4.79-13.32,8.17-21.84,0.89-2.84.71-4.79-.53-5.68a8.88,8.88,0,0,0-4.26-1.6c-1.6-.18-2.31-0.71-2.31-1.6,0-1.6,2.66-4.26,8.17-8s9.94-5.68,13.32-5.68c2.31,0,5.68.71,10.12,2.31a74.88,74.88,0,0,1,11,4.79,5.24,5.24,0,0,1,2.31,2.49,6.09,6.09,0,0,1,.71,2.84l-0.18,1.42Zm3.91-26.28c2.49,0.89,2.49,2.49-.18,4.79A25,25,0,0,1,308,103.5c-2.84,0-6.39-2-10.48-5.86s-6.39-7.28-6.75-9.94c-0.71-4.08.35-10.3,3-18.82s4.08-15.8,4.08-21.66c0-3.37.18-5.33,0.53-6s1.78-.89,4.08-0.53A63.63,63.63,0,0,1,323,47.4c6.92,3.55,10.48,7.1,10.48,10.83a20.09,20.09,0,0,1-2.13,8.52A95.48,95.48,0,0,1,325.53,77,87.73,87.73,0,0,0,320,87q-2.93,6.13,2.13,7.46Z"/><path class="a" d="M396.19,105.46q1.33,0,2.66,2.66a12.17,12.17,0,0,1,1.07,6.39,9.51,9.51,0,0,1-2.66,6.21q-6.66,6.92-20.77,3.73l-6,20.6-0.71,2.84c-0.35,1.06-.53,2-0.71,2.49a3.12,3.12,0,0,0-.18,1.07v0.35l-2.66,11.9a19.4,19.4,0,0,1-.53,3v0.53c-0.18,4.44,2.84,5,8.88,1.6a39.77,39.77,0,0,0,9.06-7.28c2.49-2.66,4.08-3.2,4.79-1.78q1.33,2.4-3.2,9.59-12,18.91-26.63,24.5c-3.55,1.6-6.57,2.49-9.23,2.49H349l-0.35.18c-4.08,0-9.06-3-15.09-9.05s-9.06-10.65-9.06-13.67q0-8.79,4.26-21.84l10.3-31.6a31.3,31.3,0,0,0-7.46,1.6c-2,.53-3,0-3-1.42a9.33,9.33,0,0,1,1.06-4.08,18.31,18.31,0,0,1,4.08-4.79q2.93-2.66,5.33-4.79a71.82,71.82,0,0,1,7.28-5.33l8-5.15,9.41-5.86,9.23-5.68a7.21,7.21,0,0,1,3.73-.89,15.52,15.52,0,0,1,4.26.53l1.78,0.35c1.42,0.53,2.31,1.24,2.49,2.13a16.93,16.93,0,0,1-.53,5.33q-0.8,4.53-5.33,20.77a19.25,19.25,0,0,0,7.46-1.42,14.86,14.86,0,0,0,4.79-3l2.84-3a3.93,3.93,0,0,1,2.13-1.42Z"/><path class="a" d="M470.23,110.25a8.15,8.15,0,0,1-3.91,1.24c-1.07,0-1.6-.35-1.78-1.06a4.69,4.69,0,0,1,.89-3A194.33,194.33,0,0,0,479.1,82c3.2-7.46,3.73-11.19,1.42-11.19-5.5,0-13.85,14.91-25,44.57a51.47,51.47,0,0,0,16.51,0,2.8,2.8,0,0,1,2.13.18,1,1,0,0,1,.53,1.24c-0.18,2-2.31,4.44-6.21,7.46s-6.75,4.62-8.7,5q-1.86.27-8.52-1.07c-3,5.68-7.46,20.77-13.32,45.45s-8.52,37.64-8,39.06c-0.35,2.66-.18,4.62.53,6a3.71,3.71,0,0,0,2.66,2.31,14.92,14.92,0,0,1,3,.89,2.14,2.14,0,0,1,1.42,2.13c0,2.31-2.84,5.86-8.7,10.65s-11.36,7.1-16.51,7.1q-6.13,0-14.91-9.06c-5.86-6-8.7-10.65-8.7-13.67q0.27-6.66,5.33-24c1.6-5.33,4.79-16.51,9.41-33.56S412,131.74,415.19,123c-2.66-.18-4.79-0.35-6.39-0.35a27.83,27.83,0,0,0-6.92,1.42c-2,.71-3,0.35-3-1.24q0-3.46,5.86-7.46a37.23,37.23,0,0,1,14.56-5.5l3.91-11.72,3.2-9.59,1.24-3.91c2.31-5.86,9.05-11,20.06-15.45s20.77-6.57,29.12-6.57c4.44,0,9.76,1.78,16,5.5S502,75.81,502,79.89c0,4.62-3.2,9.59-9.59,15.09a104.64,104.64,0,0,1-20.6,13.85Z"/><path class="a" d="M529.88,163c1.78-1.6,3.2-2,4.08-1.07s0.71,2.13-.53,3.91q-9.85,15.18-21.84,22.9c-8,5.15-15.45,7.81-22.37,7.81-6.21,0-13.14-3-20.77-8.88s-11.54-11.72-11.72-17.4c-0.18-7.46,2.13-16.33,6.75-26.46a105.71,105.71,0,0,1,16.16-25.92q9.32-10.65,15.45-10.65a70.48,70.48,0,0,1,30,6.92q14.92,6.92,15.45,14.91c0.18,5.15-3.55,11.19-11.19,18.29a46.46,46.46,0,0,1-26.63,12.43c-1.42.18-2.31-.18-2.66-0.89s0-1.42,1.07-2.31q14.12-12.52,18.64-29.3c1.6-6.21,1.6-9.77-.18-10.65a0.65,0.65,0,0,0-.53-0.18c-3,0-6.92,5-11.72,14.74-6.39,12.78-9.77,24.15-10.3,33.91q-0.27,12.78,8,12.78,7.19,0,25-15.45Z"/><path class="a" d="M610,163c1.78-1.6,3.2-2,4.08-1.07s0.71,2.13-.53,3.91q-9.85,15.18-21.84,22.9c-8,5.15-15.45,7.81-22.37,7.81-6.21,0-13.14-3-20.77-8.88S537,175.95,536.8,170.26c-0.18-7.46,2.13-16.33,6.75-26.46a105.71,105.71,0,0,1,16.16-25.92q9.32-10.65,15.45-10.65a70.48,70.48,0,0,1,30,6.92q14.91,6.92,15.45,14.91c0.18,5.15-3.55,11.19-11.19,18.29a46.45,46.45,0,0,1-26.63,12.43c-1.42.18-2.31-.18-2.66-0.89s0-1.42,1.07-2.31q14.12-12.52,18.64-29.3c1.6-6.21,1.6-9.77-.18-10.65a0.65,0.65,0,0,0-.53-0.18c-3,0-6.92,5-11.72,14.74-6.39,12.78-9.77,24.15-10.3,33.91q-0.27,12.78,8,12.78,7.19,0,25-15.45Z"/><path class="a" d="M730.5,83.62c-0.35,1.6-.89,3.37-1.42,5.5s-1.24,4.62-2.13,7.46-1.6,5.33-2.13,7.46l-7.1,21.84q-5.33,16.25-8,26.63T707.07,169q0,4,1.6,5.86a4.61,4.61,0,0,0,3.55,1.78,22.68,22.68,0,0,1,3.55.18,1.63,1.63,0,0,1,1.6,1.78c0,2.13-3.2,5.68-9.77,10.48s-12.43,7.28-17.75,7.28q-4.79,0-11.72-5.86a46,46,0,0,1-10.47-12.07,79.48,79.48,0,0,1-11.9,12.43q-6.39,5.33-9.59,5.33c-6.57,0-13.14-2.84-19.53-8.52S617,177,617,172.75a67.61,67.61,0,0,1,4.62-23.26,93.9,93.9,0,0,1,10.65-21.13,109.71,109.71,0,0,1,12.07-14.74c3.91-3.91,6.92-5.86,8.88-5.86a76.64,76.64,0,0,1,17.58,2.13c6,1.42,10.83,3.37,14.2,5.86q7.19-23.7,7.46-24.5c0.53-2,.36-3.37-0.53-4.44a11.63,11.63,0,0,0-3.2-2.66A3,3,0,0,1,687,81.67c0-2,2.84-4.44,8.52-7.63s10.12-4.79,13.32-4.79q6.66,0,19.71,6.92c2.49,1.42,3.37,3.73,2.84,6.92ZM658.6,177c1.24,0,3.55-3.73,6.92-11s6.92-16,10.65-26.1a29.65,29.65,0,0,0,1.06-3.55c0.36-1.42.89-3.73,1.6-6.75a24.69,24.69,0,0,0,.89-7.46c-0.18-2-.89-3-2.31-3-3.91,0-8.52,6.21-13.85,18.47Q655.31,157,655,170.09c-0.18,4.79.89,7.1,3,7.1Z"/></svg>